<svg xmlns="http://www.w3.org/2000/svg" viewBox="0 0 83.79 83.79">
    <title>Asset 2</title>
    <g id="Layer_2" data-name="Layer 2">
        <g id="icons">
            <path class="cls-1" d="M41.89,0a41.9,41.9,0,1,0,41.9,41.89A41.94,41.94,0,0,0,41.89,0Zm0,81A39.1,39.1,0,1,1,81,41.89,39.14,39.14,0,0,1,41.89,81Z" />
            <circle class="cls-1" cx="23.83" cy="51.99" r="2" />
            <circle class="cls-1" cx="29.43" cy="51.99" r="2" />
            <circle class="cls-1" cx="34.76" cy="51.99" r="2" />
            <path class="cls-1" d="M59.47,25.79V35a27.57,27.57,0,0,1-.15,3.1,13.74,13.74,0,0,1-.63,2.74A6.7,6.7,0,0,1,54.51,45L60,54H55.87L49,42.21l-3.32-5a4.43,4.43,0,0,0-1.27.65c-1.39,1.13-2.08,3-2.08,5.64V54H38.68V44.83c0-3.19.48-5.56,1.42-7.1A6.83,6.83,0,0,1,41.69,36a7.77,7.77,0,0,1,2.44-1.3L38.7,25.79h4.11L49.29,36.7l3.65,5.66A5.58,5.58,0,0,0,54.59,41a6.12,6.12,0,0,0,.89-1.9,10,10,0,0,0,.36-2.85V25.79Z" />
        </g>
    </g>
</svg>